<svg width="17" height="20" viewBox="0 0 17 20" fill="none" xmlns="http://www.w3.org/2000/svg">
<path d="M14.0297 7.02V5.83333C14.0297 4.28624 13.421 2.80251 12.3376 1.70854C11.2543 0.614582 9.78487 0 8.25274 0C6.7206 0 5.25122 0.614582 4.16784 1.70854C3.08446 2.80251 2.47582 4.28624 2.47582 5.83333V7.02C1.7408 7.34392 1.11519 7.8771 0.675486 8.55434C0.235785 9.23158 0.00105501 10.0235 0 10.8333V15.8333C0.00131042 16.938 0.436472 17.997 1.21003 18.7782C1.98359 19.5593 3.03239 19.9987 4.12637 20H12.3791C13.4731 19.9987 14.5219 19.5593 15.2954 18.7782C16.069 17.997 16.5042 16.938 16.5055 15.8333V10.8333C16.5044 10.0235 16.2697 9.23158 15.83 8.55434C15.3903 7.8771 14.7647 7.34392 14.0297 7.02ZM4.12637 5.83333C4.12637 4.72826 4.56111 3.66846 5.33495 2.88706C6.1088 2.10565 7.15836 1.66667 8.25274 1.66667C9.34712 1.66667 10.3967 2.10565 11.1705 2.88706C11.9444 3.66846 12.3791 4.72826 12.3791 5.83333V6.66667H4.12637V5.83333ZM14.8549 15.8333C14.8549 16.4964 14.5941 17.1323 14.1298 17.6011C13.6655 18.0699 13.0357 18.3333 12.3791 18.3333H4.12637C3.46974 18.3333 2.84001 18.0699 2.3757 17.6011C1.91139 17.1323 1.65055 16.4964 1.65055 15.8333V10.8333C1.65055 10.1703 1.91139 9.53441 2.3757 9.06557C2.84001 8.59673 3.46974 8.33333 4.12637 8.33333H12.3791C13.0357 8.33333 13.6655 8.59673 14.1298 9.06557C14.5941 9.53441 14.8549 10.1703 14.8549 10.8333V15.8333Z" fill="#979797"/>
<path d="M8.25301 11.6666C8.03413 11.6666 7.82422 11.7544 7.66945 11.9107C7.51468 12.067 7.42773 12.2789 7.42773 12.5V14.1666C7.42773 14.3876 7.51468 14.5996 7.66945 14.7559C7.82422 14.9122 8.03413 15 8.25301 15C8.47188 15 8.6818 14.9122 8.83656 14.7559C8.99133 14.5996 9.07828 14.3876 9.07828 14.1666V12.5C9.07828 12.2789 8.99133 12.067 8.83656 11.9107C8.6818 11.7544 8.47188 11.6666 8.25301 11.6666Z" fill="#979797"/>
</svg>
