<svg width="293" height="97" viewBox="0 0 293 97" fill="none" xmlns="http://www.w3.org/2000/svg">
<rect x="0.547119" y="61.2856" width="291.927" height="15.3351" fill="white"/>
<g style="mix-blend-mode:multiply">
<path d="M77.1979 61.2856H0.547119V76.6207H77.1979V61.2856Z" fill="#C2D500"/>
</g>
<g style="mix-blend-mode:multiply">
<path d="M150.199 61.2856H73.5481V76.6207H150.199V61.2856Z" fill="#7BADD3"/>
</g>
<g style="mix-blend-mode:multiply">
<path d="M223.052 61.2856H146.401V76.6207H223.052V61.2856Z" fill="#D48CC7"/>
</g>
<g style="mix-blend-mode:multiply">
<path d="M292.406 61.2856H219.405V76.6207H292.406V61.2856Z" fill="#FF4438"/>
</g>
<path d="M238.664 66.0435H240.012C240.387 66.0435 240.688 66.3745 240.688 66.7876V69.261C240.688 69.6741 240.387 70.0051 240.012 70.0051H239.339V73.2226H238.664V66.0435ZM239.339 69.261H240.012V66.7876H239.339V69.261Z" fill="#231F20"/>
<path d="M241.887 66.0435H243.236C243.61 66.0435 243.911 66.3745 243.911 66.7876V69.0585C243.911 69.4005 243.775 69.5318 243.61 69.633C243.775 69.7042 243.911 69.8547 243.911 70.2979V72.6891C243.911 72.8888 243.985 73.0421 244.075 73.2226H243.383C243.309 73.0722 243.238 72.8724 243.238 72.6891V70.0051H242.565V73.2226H241.889V66.0435H241.887ZM242.562 69.261H243.236V66.7876H242.562V69.261Z" fill="#231F20"/>
<path d="M245.271 67.0994C245.271 66.4866 245.728 65.9832 246.283 65.9832C246.839 65.9832 247.296 66.4866 247.296 67.0994V72.1664C247.296 72.7793 246.839 73.2827 246.283 73.2827C245.728 73.2827 245.271 72.7793 245.271 72.1664V67.0994ZM246.62 66.7903H245.947V72.4811H246.62V66.7903Z" fill="#231F20"/>
<path d="M248.656 66.0435H249.277L249.676 67.3294C249.785 67.6905 249.895 68.0626 249.996 68.4265H250.015C250.114 68.0653 250.223 67.6932 250.333 67.3294L250.732 66.0435H251.353V73.2226H250.68V69.9449C250.68 69.2911 250.716 68.3444 250.754 67.7808H250.735C250.508 68.6563 250.253 69.4114 250.015 70.1939H249.996C249.758 69.4087 249.504 68.6536 249.277 67.7808H249.26C249.296 68.3444 249.334 69.2883 249.334 69.9449V73.2226H248.658V66.0435H248.656Z" fill="#231F20"/>
<path d="M252.716 67.0994C252.716 66.4866 253.172 65.9832 253.728 65.9832C254.283 65.9832 254.74 66.4866 254.74 67.0994V72.1664C254.74 72.7793 254.283 73.2827 253.728 73.2827C253.172 73.2827 252.716 72.7793 252.716 72.1664V67.0994ZM254.064 66.7903H253.391V72.4811H254.064V66.7903Z" fill="#231F20"/>
<path d="M256.521 66.7876H255.845V66.0435H257.87V66.7876H257.194V73.2226H256.521V66.7876Z" fill="#231F20"/>
<path d="M258.976 66.0435H259.651V73.2226H258.976V66.0435Z" fill="#231F20"/>
<path d="M261.011 67.0994C261.011 66.4866 261.468 65.9832 262.023 65.9832C262.579 65.9832 263.036 66.4866 263.036 67.0994V72.1664C263.036 72.7793 262.579 73.2827 262.023 73.2827C261.468 73.2827 261.011 72.7793 261.011 72.1664V67.0994ZM262.36 66.7903H261.687V72.4811H262.36V66.7903Z" fill="#231F20"/>
<path d="M264.395 66.0433H265.033C265.271 67.5508 265.616 69.0391 265.815 70.6369H265.834C265.799 70.035 265.741 68.7573 265.741 68.1226V66.0405H266.417V73.2197H265.777C265.542 71.7122 265.194 70.2238 264.995 68.626H264.975C265.011 69.2307 265.068 70.5084 265.068 71.1404V73.2197H264.393V66.0405L264.395 66.0433Z" fill="#231F20"/>
<path d="M267.782 67.0994C267.782 66.4866 268.239 65.9832 268.795 65.9832C269.35 65.9832 269.807 66.4866 269.807 67.0994V73.2225H269.131V70.005H268.458V73.2225H267.782V67.0994ZM268.458 69.2636H269.131V66.7903H268.458V69.2636Z" fill="#231F20"/>
<path d="M271.167 66.0435H271.843V72.4785H272.516V70.9901H273.192V73.2226H271.167V66.0435Z" fill="#231F20"/>
<path d="M32.8042 66.0435H34.153C34.5251 66.0435 34.8288 66.3745 34.8288 66.7876V69.0585C34.8288 69.4005 34.692 69.5318 34.5279 69.633C34.692 69.7042 34.8288 69.8547 34.8288 70.2979V72.4785C34.8288 72.8888 34.5279 73.2226 34.153 73.2226H32.8042V66.0435ZM33.48 69.261H34.153V66.7876H33.48V69.261ZM33.48 72.4785H34.153V70.0051H33.48V72.4785Z" fill="#231F20"/>
<path d="M36.1912 67.0994C36.1912 66.4866 36.6481 65.9832 37.2035 65.9832C37.7589 65.9832 38.2158 66.4866 38.2158 67.0994V73.2225H37.54V70.005H36.8669V73.2225H36.1912V67.0994ZM36.8669 69.2636H37.54V66.7903H36.8669V69.2636Z" fill="#231F20"/>
<path d="M39.5757 67.0994C39.5757 66.4866 40.0326 65.9832 40.588 65.9832C41.1434 65.9832 41.6003 66.4866 41.6003 67.0994V67.9147H40.9246V66.7903H40.2515V72.4811H40.9246V70.0078H40.6318V69.2636H41.5976V72.1692C41.5976 72.782 41.1407 73.2854 40.5853 73.2854C40.0299 73.2854 39.573 72.782 39.573 72.1692V67.1022L39.5757 67.0994Z" fill="#231F20"/>
<path d="M42.9602 71.3539H43.636V72.4811H44.309V70.0078H43.636C43.2612 70.0078 42.9602 69.6767 42.9602 69.2636V67.0994C42.9602 66.4866 43.4171 65.9832 43.9725 65.9832C44.5279 65.9832 44.9848 66.4866 44.9848 67.0994V67.9147H44.309V66.7903H43.636V69.2636H44.309C44.6839 69.2636 44.9848 69.5946 44.9848 70.0078V72.1692C44.9848 72.782 44.5279 73.2854 43.9725 73.2854C43.4171 73.2854 42.9602 72.782 42.9602 72.1692V71.3566V71.3539Z" fill="#231F20"/>
<path d="M102.667 66.0435H103.343V72.4785H104.016V70.9901H104.689V73.2226H102.664V66.0435H102.667Z" fill="#231F20"/>
<path d="M105.887 67.0994C105.887 66.4866 106.344 65.9832 106.9 65.9832C107.455 65.9832 107.912 66.4866 107.912 67.0994V73.2225H107.239V70.005H106.566V73.2225H105.89V67.0994H105.887ZM106.563 69.2636H107.236V66.7903H106.563V69.2636Z" fill="#231F20"/>
<path d="M109.274 66.0435H110.626C110.998 66.0435 111.299 66.3745 111.299 66.7876V69.0585C111.299 69.4005 111.162 69.5318 110.998 69.633C111.165 69.7042 111.299 69.8547 111.299 70.2979V72.4785C111.299 72.8888 110.998 73.2226 110.626 73.2226H109.274V66.0435ZM109.95 69.261H110.623V66.7876H109.95V69.261ZM109.95 72.4785H110.623V70.0051H109.95V72.4785Z" fill="#231F20"/>
<path d="M114.683 66.7876H113.334V69.261H114.347V70.0051H113.334V72.4785H114.683V73.2226H113.334C112.96 73.2226 112.659 72.8916 112.659 72.4785V66.7876C112.659 66.3745 112.96 66.0435 113.334 66.0435H114.683V66.7876Z" fill="#231F20"/>
<path d="M115.879 66.0435H116.555V72.4785H117.228V70.9901H117.901V73.2226H115.876V66.0435H115.879Z" fill="#231F20"/>
<path d="M119.102 71.3539H119.775V72.4811H120.448V70.0078H119.775C119.4 70.0078 119.102 69.6767 119.102 69.2636V67.0994C119.102 66.4866 119.556 65.9832 120.114 65.9832C120.672 65.9832 121.129 66.4866 121.129 67.0994V67.9147H120.454V66.7903H119.781V69.2636H120.454C120.828 69.2636 121.129 69.5946 121.129 70.0078V72.1692C121.129 72.782 120.672 73.2854 120.114 73.2854C119.556 73.2854 119.102 72.782 119.102 72.1692V71.3566V71.3539Z" fill="#231F20"/>
<path d="M173.578 66.0435H174.927C175.302 66.0435 175.602 66.3745 175.602 66.7876V69.261C175.602 69.6741 175.302 70.0051 174.927 70.0051H174.254V73.2226H173.578V66.0435ZM174.254 69.261H174.927V66.7876H174.254V69.261Z" fill="#231F20"/>
<path d="M176.798 66.0435H178.147C178.522 66.0435 178.823 66.3745 178.823 66.7876V69.0585C178.823 69.4005 178.686 69.5318 178.522 69.633C178.686 69.7042 178.823 69.8547 178.823 70.2979V72.6891C178.823 72.8888 178.897 73.0421 178.987 73.2226H178.295C178.221 73.0722 178.15 72.8724 178.15 72.6891V70.0051H177.477V73.2226H176.801V66.0435H176.798ZM177.474 69.261H178.147V66.7876H177.474V69.261Z" fill="#231F20"/>
<path d="M180.185 66.0435H180.861V73.2226H180.185V66.0435Z" fill="#231F20"/>
<path d="M182.218 66.0433H182.858C183.094 67.5508 183.441 69.0391 183.641 70.6369H183.66C183.624 70.035 183.567 68.7573 183.567 68.1226V66.0405H184.243V73.2197H183.602C183.367 71.7122 183.02 70.2238 182.82 68.626H182.801C182.836 69.2307 182.894 70.5084 182.894 71.1404V73.2197H182.218V66.0405V66.0433Z" fill="#231F20"/>
<path d="M186.024 66.7876H185.348V66.0435H187.373V66.7876H186.697V73.2226H186.024V66.7876Z" fill="#231F20"/>
<path d="M188.478 66.0435H189.154V73.2226H188.478V66.0435Z" fill="#231F20"/>
<path d="M190.513 66.0433H191.154C191.389 67.5508 191.736 69.0391 191.936 70.6369H191.955C191.92 70.035 191.862 68.7573 191.862 68.1226V66.0405H192.538V73.2197H191.898C191.663 71.7122 191.315 70.2238 191.115 68.626H191.096C191.132 69.2307 191.189 70.5084 191.189 71.1404V73.2197H190.513V66.0405V66.0433Z" fill="#231F20"/>
<path d="M193.898 67.0994C193.898 66.4866 194.355 65.9832 194.91 65.9832C195.465 65.9832 195.922 66.4866 195.922 67.0994V67.9147H195.247V66.7903H194.573V72.4811H195.247V70.0078H194.954V69.2636H195.922V72.1692C195.922 72.782 195.465 73.2854 194.91 73.2854C194.355 73.2854 193.898 72.782 193.898 72.1692V67.1022V67.0994Z" fill="#231F20"/>
<path d="M43.1544 0.55542V53.2501H35.1271V40.9492H17.2338L9.4637 53.2501H0L33.3241 0.55542H43.1544ZM22.2762 32.9602H35.1243V12.6703L22.2762 32.9602Z" fill="white"/>
<path d="M63.6878 48.2405C60.0298 44.5825 58.1995 40.164 58.1995 34.982V0.51709H66.2268V34.982C66.2268 37.9533 67.2692 40.4813 69.3567 42.5689C71.4689 44.681 73.9969 45.7371 76.9408 45.7371C79.8847 45.7371 82.4401 44.681 84.5277 42.5689C86.6371 40.4841 87.6932 37.9533 87.6932 34.982V0.51709H95.7205V34.982C95.7205 40.1612 93.8792 44.5798 90.1938 48.2405C86.5359 51.8985 82.1173 53.7261 76.9381 53.7261C71.7589 53.7261 67.3622 51.8985 63.6851 48.2405H63.6878Z" fill="white"/>
<path d="M124.432 53.726C120.943 53.5783 117.729 52.6453 114.785 50.9271C111.444 48.9873 109.173 46.3854 107.972 43.1214L115.485 40.3608C116.098 41.9805 117.365 43.2938 119.277 44.3006C120.973 45.1597 122.809 45.6385 124.801 45.737C127.871 45.8601 130.41 45.1105 132.423 43.4908C134.117 42.1146 135.014 40.5441 135.113 38.7767C135.258 35.4142 131.737 32.7247 124.544 30.7111C113.274 27.5456 107.811 22.1803 108.155 14.6181C108.377 9.31583 110.648 5.35142 114.968 2.72489C118.257 0.711219 122.207 -0.183442 126.823 0.0354355C132.421 0.281672 136.913 2.23242 140.3 5.8904L134.445 11.3404C132.53 9.27753 129.868 8.1722 126.456 8.02445C124.051 7.92596 122.002 8.23239 120.306 8.94648C117.655 10.0764 116.268 12.0874 116.147 14.9847C115.999 18.298 119.521 20.9628 126.714 22.9738C133.195 24.7904 137.786 27.4662 140.489 31.0011C142.352 33.4553 143.225 36.1693 143.102 39.1379C142.905 43.3129 141.014 46.8478 137.43 49.7452C134.092 52.421 130.092 53.7589 125.428 53.7589C125.086 53.7589 124.755 53.7452 124.434 53.7205L124.432 53.726Z" fill="white"/>
<path d="M155.236 53.2501V0.55542H171.769C175.942 0.55542 179.504 2.02737 182.45 4.974C185.394 7.94526 186.866 11.5048 186.866 15.6525C186.866 19.3597 185.676 22.6128 183.296 25.4117C185.334 26.8125 186.929 28.6018 188.081 30.7878C189.31 33.0231 189.922 35.4171 189.922 37.9697C189.922 42.1913 188.426 45.7891 185.433 48.7577C182.459 51.7508 178.877 53.2501 174.68 53.2501H155.236ZM163.225 22.7605H171.769C173.734 22.7605 175.403 22.0601 176.776 20.662C178.177 19.2886 178.877 17.6196 178.877 15.6552C178.877 13.6908 178.177 12.0218 176.776 10.6484C175.403 9.25032 173.734 8.54991 171.769 8.54991H163.225V22.7633V22.7605ZM163.225 45.2584H174.678C176.664 45.2584 178.371 44.5443 179.797 43.1216C181.197 41.6989 181.898 39.9807 181.898 37.967C181.898 35.9533 181.2 34.2844 179.797 32.8836C178.374 31.4609 176.667 30.7495 174.678 30.7495H163.225V45.2584Z" fill="white"/>
<path d="M240.765 0.55542V53.2501H232.735V40.9492H214.842L207.072 53.2501H197.608L230.935 0.55542H240.768H240.765ZM219.887 32.9602H232.735V12.6703L219.887 32.9602Z" fill="white"/>
<path d="M261.036 45.8821C255.783 40.6318 253.156 34.2953 253.156 26.8809C253.156 19.4664 255.783 13.1326 261.036 7.87958C266.289 2.62653 272.623 0 280.037 0C283.698 0 287.183 0.700407 290.497 2.09848L287.402 9.49927C285.044 8.49243 282.59 7.98902 280.037 7.98902C274.833 7.98902 270.39 9.844 266.707 13.5485C263.025 17.2311 261.184 21.6743 261.184 26.8781C261.184 32.0819 263.025 36.5251 266.707 40.2105C270.39 43.8931 274.833 45.7344 280.037 45.7344C281.731 45.7344 283.375 45.5265 284.973 45.1079V30.7468H276.428V22.7195H293V50.5935L290.571 51.6249C287.208 53.0504 283.698 53.7617 280.037 53.7617C272.623 53.7617 266.289 51.1325 261.036 45.8794V45.8821Z" fill="white"/>
<path d="M59.5017 85.1705L54.5688 89.0829L53.6577 87.9366L59.0804 83.6411H61.1734V96.8175H59.499V85.1705H59.5017Z" fill="white"/>
<path d="M74.8343 89.3759H79.8766C82.1885 89.3759 82.2433 88.7767 82.2433 87.2118C82.2433 85.1899 81.8082 84.9546 79.0969 84.9546H73.9998C71.6332 84.9546 70.8343 85.4088 70.8343 86.6263V87.5729H69.1599V86.681C69.1599 84.5716 70.2871 83.4963 72.8726 83.4963H79.4061C83.0093 83.4963 83.9204 84.5141 83.9204 86.8807C83.9204 89.2473 83.6276 89.6468 81.8629 90.0654V90.101C83.4662 90.3007 84.1393 90.7549 84.1393 93.1215C84.1393 95.4881 83.9751 96.96 79.3705 96.96H73.7836C70.1804 96.96 69.0696 96.0325 69.0696 93.5592V92.722H70.744C70.744 94.7767 70.9601 95.5072 73.5456 95.5072H78.6236C82.0435 95.5072 82.4649 95.4525 82.4649 93.1242C82.4649 90.9765 81.8821 90.8315 80.3363 90.8315H74.8397V89.3759H74.8343Z" fill="white"/>
<path d="M86.4375 87.9012C86.4375 85.0448 87.4006 83.499 90.9683 83.499H97.2281C100.796 83.499 101.759 85.0448 101.759 87.9012V92.5605C101.759 95.4169 100.796 96.9627 97.2281 96.9627H90.9683C87.4006 96.9627 86.4375 95.4169 86.4375 92.5605V87.9012ZM100.084 88.7384C100.084 85.3157 99.5756 84.9546 96.0818 84.9546H92.1146C88.6208 84.9546 88.1119 85.3184 88.1119 88.7384V91.7233C88.1119 95.146 88.6208 95.5099 92.1146 95.5099H96.0818C99.5756 95.5099 100.084 95.146 100.084 91.7233V88.7384Z" fill="white"/>
<path d="M103.989 87.9012C103.989 85.0448 104.954 83.499 108.519 83.499H114.779C118.347 83.499 119.31 85.0448 119.31 87.9012V92.5605C119.31 95.4169 118.347 96.9627 114.779 96.9627H108.519C104.952 96.9627 103.989 95.4169 103.989 92.5605V87.9012ZM117.638 88.7384C117.638 85.3157 117.129 84.9546 113.636 84.9546H109.668C106.175 84.9546 105.666 85.3184 105.666 88.7384V91.7233C105.666 95.146 106.175 95.5099 109.668 95.5099H113.636C117.129 95.5099 117.638 95.146 117.638 91.7233V88.7384Z" fill="white"/>
<path d="M137.305 83.6411H139.523L147.348 96.8175H145.329L143.693 94.0323H133.138L131.499 96.8175H129.48L137.305 83.6411ZM138.415 85.0966L133.994 92.5768H142.839L138.415 85.0966Z" fill="white"/>
<path d="M149.381 83.6411H151.165V93.4878C151.165 94.7601 151.6 95.507 154.021 95.507H160.207C162.628 95.507 163.066 94.7601 163.066 93.4878V83.6411H164.847V93.5043C164.847 96.1773 163.501 96.9598 160.152 96.9598H154.076C150.727 96.9598 149.381 96.1773 149.381 93.5043V83.6411Z" fill="white"/>
<path d="M168.027 92.67H169.701V93.5975C169.701 94.8888 170.393 95.5099 172.612 95.5099H178.144C180.73 95.5099 181.493 94.9627 181.493 93.0722C181.493 91.4169 180.836 90.9983 178.618 90.9983H175.233C169.791 90.9983 168.01 90.67 168.01 87.1762C168.01 84.1748 169.794 83.499 173.469 83.499H177.307C181.731 83.499 182.839 84.629 182.839 86.9764V87.4306H181.165C181.129 85.3376 180.91 84.9573 176.235 84.9573H174.341C170.902 84.9573 169.682 85.1379 169.682 87.3047C169.682 88.8697 170.172 89.3978 172.957 89.3978H178.235C181.709 89.3978 183.168 90.3991 183.168 92.6371V93.4935C183.168 96.7329 180.511 96.9682 177.871 96.9682H172.921C170.317 96.9682 168.027 96.514 168.027 93.6385V92.6727V92.67Z" fill="white"/>
<path d="M186.325 83.6411H197.572C200.303 83.6411 201.066 85.0611 201.066 86.5713V87.6985C201.066 88.6452 200.538 89.611 198.935 89.7724V89.8463C200.338 89.9202 201.575 90.4482 201.575 92.4482V94.0159C201.575 95.8517 199.936 96.8175 197.753 96.8175H186.325V83.6411ZM199.282 86.481C199.282 85.28 197.955 85.0994 197.408 85.0994H188.111V89.3046H197.318C198.284 89.3046 199.282 88.9954 199.282 87.6849V86.4838V86.481ZM199.791 92.6506C199.791 91.0118 198.883 90.7574 197.263 90.7574H188.111V95.362H197.537C199.192 95.362 199.794 94.7601 199.794 93.5946V92.6479L199.791 92.6506Z" fill="white"/>
<path d="M211.102 83.6411H213.321L221.145 96.8175H219.126L217.49 94.0323H206.935L205.296 96.8175H203.277L211.102 83.6411ZM212.213 85.0966L207.791 92.5768H216.637L212.213 85.0966Z" fill="white"/>
<path d="M239.337 92.1036C239.337 95.6905 238.171 96.9627 234.877 96.9627H227.526C223.958 96.9627 222.831 95.3622 222.831 92.0325V88.4292C222.831 85.0996 223.958 83.499 227.526 83.499H234.259C236.626 83.499 239.154 84.0818 239.154 87.1214V87.5948H237.479C237.479 85.1379 236.735 84.9573 232.327 84.9573H227.706C225.996 84.9573 224.612 85.4662 224.612 87.7589V92.7083C224.612 95.001 225.996 95.5126 227.706 95.5126H234.678C236.461 95.5126 237.553 94.8943 237.553 93.0749V91.748H230.801V90.2897H239.337V92.1091V92.1036Z" fill="white"/>
</svg>
