<svg width="24" height="25" viewBox="0 0 24 25" fill="none" xmlns="http://www.w3.org/2000/svg">
<path d="M21 0H3C1.346 0 0 1.47245 0 3.28182V24.0667H24V3.28182C24 1.47245 22.654 0 21 0ZM22 21.8788H2V3.28182C2 2.67906 2.449 2.18788 3 2.18788H21C21.551 2.18788 22 2.67906 22 3.28182V21.8788ZM10 5.46971H19V7.65759H10V5.46971ZM8 6.56365C8 7.46943 7.328 8.20456 6.5 8.20456C5.672 8.20456 5 7.46943 5 6.56365C5 5.65787 5.672 4.92274 6.5 4.92274C7.328 4.92274 8 5.65787 8 6.56365ZM10 10.9394H19V13.1273H10V10.9394ZM8 12.0334C8 12.9391 7.328 13.6743 6.5 13.6743C5.672 13.6743 5 12.9391 5 12.0334C5 11.1276 5.672 10.3924 6.5 10.3924C7.328 10.3924 8 11.1276 8 12.0334ZM10 16.4091H19V18.597H10V16.4091ZM8 17.5031C8 18.4088 7.328 19.144 6.5 19.144C5.672 19.144 5 18.4088 5 17.5031C5 16.5973 5.672 15.8622 6.5 15.8622C7.328 15.8622 8 16.5973 8 17.5031Z" fill="#191613"/>
</svg>
