<svg width="9" height="11" viewBox="0 0 9 11" fill="none" xmlns="http://www.w3.org/2000/svg">
<path d="M3.03054 2.49459L4.12777 1.1683L4.12515 8.16356C4.12515 8.41381 4.29304 8.61667 4.50014 8.61667C4.70725 8.61667 4.87513 8.41381 4.87513 8.16356L4.87775 1.17601L5.96974 2.49595C6.11872 2.6698 6.35611 2.66483 6.49998 2.48482C6.64034 2.30923 6.64034 2.03084 6.49998 1.85525L5.29588 0.398462C4.85668 -0.13258 4.14439 -0.132856 3.7049 0.397846C3.70473 0.398058 3.70457 0.398249 3.70439 0.398462L2.50029 1.85389C2.35641 2.0339 2.36053 2.32074 2.5095 2.49459C2.65482 2.66419 2.88521 2.66419 3.03054 2.49459Z" fill="white"/>
<path d="M8.62486 7.25C8.41776 7.25 8.24987 7.45286 8.24987 7.70311V9.51558C8.24987 9.76583 8.08198 9.96869 7.87488 9.96869H1.12497C0.917865 9.96869 0.749979 9.76583 0.749979 9.51558V7.70311C0.749979 7.45286 0.582092 7.25 0.374989 7.25C0.167887 7.25 0 7.45286 0 7.70311V9.51558C0 10.2663 0.503677 10.8749 1.12499 10.8749H7.8749C8.49621 10.8749 8.99988 10.2663 8.99988 9.51558V7.70311C8.99985 7.45286 8.83196 7.25 8.62486 7.25Z" fill="white"/>
</svg>
